HIERARCHY
ROOT Root
{
  OFFSET 0.0 0.0 0.0
  CHANNELS 6 Xposition Yposition Zposition Zrotation Yrotation Xrotation
  JOINT Hips
  {
    OFFSET 0.0 100.0 0.0
    CHANNELS 6 Xposition Yposition Zposition Zrotation Yrotation Xrotation
    JOINT Spine1
    {
      OFFSET 5.003913 -0.037094 -0.013727
      CHANNELS 3 Zrotation Yrotation Xrotation
      JOINT Spine2
      {
        OFFSET 7.125363 -1e-06 0.0
        CHANNELS 3 Zrotation Yrotation Xrotation
        JOINT Chest
        {
          OFFSET 7.594027 1e-06 0.0
          CHANNELS 3 Zrotation Yrotation Xrotation
          JOINT Neck1
          {
            OFFSET 26.313086 -0.460272 -0.181672
            CHANNELS 3 Zrotation Yrotation Xrotation
            JOINT Neck2
            {
              OFFSET 8.045911 0.0 0.0
              CHANNELS 3 Zrotation Yrotation Xrotation
              JOINT Head
              {
                OFFSET 6.432774 0.0 0.0
                CHANNELS 3 Zrotation Yrotation Xrotation
                JOINT HeadEnd
                {
                  OFFSET 16.169773 0.06451 0.00362
                  CHANNELS 3 Zrotation Yrotation Xrotation
                }
                JOINT Jaw
                {
                  OFFSET 0.108741 3.12938 0.002639
                  CHANNELS 3 Zrotation Yrotation Xrotation
                }
                JOINT LeftEye
                {
                  OFFSET 4.45173 8.166359 3.206392
                  CHANNELS 3 Zrotation Yrotation Xrotation
                }
                JOINT RightEye
                {
                  OFFSET 4.436895 8.135758 -3.222429
                  CHANNELS 3 Zrotation Yrotation Xrotation
                }
              }
            }
          }
          JOINT LeftShoulder
          {
            OFFSET 23.218927 5.195579 1.621656
            CHANNELS 3 Zrotation Yrotation Xrotation
            JOINT LeftArm
            {
              OFFSET 15.902118 2e-06 -2e-06
              CHANNELS 3 Zrotation Yrotation Xrotation
              JOINT LeftForeArm
              {
                OFFSET 28.739307 0.0 -1e-06
                CHANNELS 3 Zrotation Yrotation Xrotation
                JOINT LeftHand
                {
                  OFFSET 27.093981 -4e-06 0.0
                  CHANNELS 3 Zrotation Yrotation Xrotation
                  JOINT LeftHandThumb1
                  {
                    OFFSET 2.276781 3.380274 0.83384
                    CHANNELS 3 Zrotation Yrotation Xrotation
                    JOINT LeftHandThumb2
                    {
                      OFFSET 4.705309 -1e-06 -1e-06
                      CHANNELS 3 Zrotation Yrotation Xrotation
                      JOINT LeftHandThumb3
                      {
                        OFFSET 2.798515 0.0 3e-06
                        CHANNELS 3 Zrotation Yrotation Xrotation
                        JOINT LeftHandThumbEnd
                        {
                          OFFSET 3.180793 4e-06 -4e-06
                          CHANNELS 3 Zrotation Yrotation Xrotation
                        }
                      }
                    }
                  }
                  JOINT LeftHandIndex1
                  {
                    OFFSET 3.247786 2.352677 0.137192
                    CHANNELS 3 Zrotation Yrotation Xrotation
                    JOINT LeftHandIndex2
                    {
                      OFFSET 6.367095 1e-06 0.0
                      CHANNELS 3 Zrotation Yrotation Xrotation
                      JOINT LeftHandIndex3
                      {
                        OFFSET 3.662364 0.0 0.0
                        CHANNELS 3 Zrotation Yrotation Xrotation
                        JOINT LeftHandIndex4
                        {
                          OFFSET 2.329242 4e-06 -4e-06
                          CHANNELS 3 Zrotation Yrotation Xrotation
                          JOINT LeftHandIndexEnd
                          {
                            OFFSET 2.767823 1e-06 0.0
                            CHANNELS 3 Zrotation Yrotation Xrotation
                          }
                        }
                      }
                    }
                  }
                  JOINT LeftHandMiddle1
                  {
                    OFFSET 3.163612 0.945023 -0.406112
                    CHANNELS 3 Zrotation Yrotation Xrotation
                    JOINT LeftHandMiddle2
                    {
                      OFFSET 6.276789 3e-06 0.0
                      CHANNELS 3 Zrotation Yrotation Xrotation
                      JOINT LeftHandMiddle3
                      {
                        OFFSET 4.35652 -1e-06 4e-06
                        CHANNELS 3 Zrotation Yrotation Xrotation
                        JOINT LeftHandMiddle4
                        {
                          OFFSET 2.996877 0.0 8e-06
                          CHANNELS 3 Zrotation Yrotation Xrotation
                          JOINT LeftHandMiddleEnd
                          {
                            OFFSET 2.323256 3e-06 -4e-06
                            CHANNELS 3 Zrotation Yrotation Xrotation
                          }
                        }
                      }
                    }
                  }
                  JOINT LeftHandRing1
                  {
                    OFFSET 2.882606 -0.309162 0.107445
                    CHANNELS 3 Zrotation Yrotation Xrotation
                    JOINT LeftHandRing2
                    {
                      OFFSET 6.033198 0.0 4e-06
                      CHANNELS 3 Zrotation Yrotation Xrotation
                      JOINT LeftHandRing3
                      {
                        OFFSET 4.350578 3e-06 0.0
                        CHANNELS 3 Zrotation Yrotation Xrotation
                        JOINT LeftHandRing4
                        {
                          OFFSET 2.651321 2e-06 -7e-06
                          CHANNELS 3 Zrotation Yrotation Xrotation
                          JOINT LeftHandRingEnd
                          {
                            OFFSET 1.937663 1e-06 -4e-06
                            CHANNELS 3 Zrotation Yrotation Xrotation
                          }
                        }
                      }
                    }
                  }
                  JOINT LeftHandPinky1
                  {
                    OFFSET 2.865315 -1.525436 0.575687
                    CHANNELS 3 Zrotation Yrotation Xrotation
                    JOINT LeftHandPinky2
                    {
                      OFFSET 5.54936 1e-06 -8e-06
                      CHANNELS 3 Zrotation Yrotation Xrotation
                      JOINT LeftHandPinky3
                      {
                        OFFSET 3.070974 0.0 -4e-06
                        CHANNELS 3 Zrotation Yrotation Xrotation
                        JOINT LeftHandPinky4
                        {
                          OFFSET 1.549672 1e-06 0.0
                          CHANNELS 3 Zrotation Yrotation Xrotation
                          JOINT LeftHandPinkyEnd
                          {
                            OFFSET 1.952123 0.0 0.0
                            CHANNELS 3 Zrotation Yrotation Xrotation
                          }
                        }
                      }
                    }
                  }
                }
              }
            }
          }
          JOINT RightShoulder
          {
            OFFSET 23.161716 5.296122 -1.380114
            CHANNELS 3 Zrotation Yrotation Xrotation
            JOINT RightArm
            {
              OFFSET -16.027195 -2e-06 1.1e-05
              CHANNELS 3 Zrotation Yrotation Xrotation
              JOINT RightForeArm
              {
                OFFSET -28.736639 4e-06 2e-06
                CHANNELS 3 Zrotation Yrotation Xrotation
                JOINT RightHand
                {
                  OFFSET -27.133619 6e-06 0.0
                  CHANNELS 3 Zrotation Yrotation Xrotation
                  JOINT RightHandThumb1
                  {
                    OFFSET -2.274328 -3.351035 -0.83067
                    CHANNELS 3 Zrotation Yrotation Xrotation
                    JOINT RightHandThumb2
                    {
                      OFFSET -4.703594 -3e-06 2e-06
                      CHANNELS 3 Zrotation Yrotation Xrotation
                      JOINT RightHandThumb3
                      {
                        OFFSET -2.794935 -4e-06 -3e-06
                        CHANNELS 3 Zrotation Yrotation Xrotation
                        JOINT RightHandThumbEnd
                        {
                          OFFSET -3.183852 4e-06 1e-06
                          CHANNELS 3 Zrotation Yrotation Xrotation
                        }
                      }
                    }
                  }
                  JOINT RightHandIndex1
                  {
                    OFFSET -3.253496 -2.33755 -0.127667
                    CHANNELS 3 Zrotation Yrotation Xrotation
                    JOINT RightHandIndex2
                    {
                      OFFSET -6.344434 0.0 0.0
                      CHANNELS 3 Zrotation Yrotation Xrotation
                      JOINT RightHandIndex3
                      {
                        OFFSET -3.654871 0.0 -8e-06
                        CHANNELS 3 Zrotation Yrotation Xrotation
                        JOINT RightHandIndex4
                        {
                          OFFSET -2.327586 -1e-06 0.0
                          CHANNELS 3 Zrotation Yrotation Xrotation
                          JOINT RightHandIndexEnd
                          {
                            OFFSET -2.770001 3e-06 8e-06
                            CHANNELS 3 Zrotation Yrotation Xrotation
                          }
                        }
                      }
                    }
                  }
                  JOINT RightHandMiddle1
                  {
                    OFFSET -3.168223 -0.944764 0.411762
                    CHANNELS 3 Zrotation Yrotation Xrotation
                    JOINT RightHandMiddle2
                    {
                      OFFSET -6.266691 -1e-06 -4e-06
                      CHANNELS 3 Zrotation Yrotation Xrotation
                      JOINT RightHandMiddle3
                      {
                        OFFSET -4.348901 0.0 0.0
                        CHANNELS 3 Zrotation Yrotation Xrotation
                        JOINT RightHandMiddle4
                        {
                          OFFSET -3.00024 2e-06 -4e-06
                          CHANNELS 3 Zrotation Yrotation Xrotation
                          JOINT RightHandMiddleEnd
                          {
                            OFFSET -2.321477 -4e-06 -4e-06
                            CHANNELS 3 Zrotation Yrotation Xrotation
                          }
                        }
                      }
                    }
                  }
                  JOINT RightHandRing1
                  {
                    OFFSET -2.885654 0.293261 -0.119232
                    CHANNELS 3 Zrotation Yrotation Xrotation
                    JOINT RightHandRing2
                    {
                      OFFSET -6.032835 -1e-06 -4e-06
                      CHANNELS 3 Zrotation Yrotation Xrotation
                      JOINT RightHandRing3
                      {
                        OFFSET -4.33881 0.0 -4e-06
                        CHANNELS 3 Zrotation Yrotation Xrotation
                        JOINT RightHandRing4
                        {
                          OFFSET -2.654903 -4e-06 -4e-06
                          CHANNELS 3 Zrotation Yrotation Xrotation
                          JOINT RightHandRingEnd
                          {
                            OFFSET -1.935122 0.0 4e-06
                            CHANNELS 3 Zrotation Yrotation Xrotation
                          }
                        }
                      }
                    }
                  }
                  JOINT RightHandPinky1
                  {
                    OFFSET -2.866241 1.503904 -0.60527
                    CHANNELS 3 Zrotation Yrotation Xrotation
                    JOINT RightHandPinky2
                    {
                      OFFSET -5.553177 -2e-06 0.0
                      CHANNELS 3 Zrotation Yrotation Xrotation
                      JOINT RightHandPinky3
                      {
                        OFFSET -3.062664 -1e-06 -4e-06
                        CHANNELS 3 Zrotation Yrotation Xrotation
                        JOINT RightHandPinky4
                        {
                          OFFSET -1.546529 2e-06 4e-06
                          CHANNELS 3 Zrotation Yrotation Xrotation
                          JOINT RightHandPinkyEnd
                          {
                            OFFSET -1.952341 0.0 -4e-06
                            CHANNELS 3 Zrotation Yrotation Xrotation
                          }
                        }
                      }
                    }
                  }
                }
              }
            }
          }
        }
      }
    }
    JOINT LeftLeg
    {
      OFFSET -8.443107 2.567604 10.043214
      CHANNELS 3 Zrotation Yrotation Xrotation
      JOINT LeftShin
      {
        OFFSET 43.229198 1e-06 -1e-06
        CHANNELS 3 Zrotation Yrotation Xrotation
        JOINT LeftFoot
        {
          OFFSET 42.298611 1e-06 1e-06
          CHANNELS 3 Zrotation Yrotation Xrotation
          JOINT LeftToeBase
          {
            OFFSET 14.165858 1e-06 0.0
            CHANNELS 3 Zrotation Yrotation Xrotation
            JOINT LeftToeEnd
            {
              OFFSET 6.7141 -0.234461 0.0
              CHANNELS 3 Zrotation Yrotation Xrotation
            }
          }
        }
      }
    }
    JOINT RightLeg
    {
      OFFSET -8.303923 2.592729 -10.047278
      CHANNELS 3 Zrotation Yrotation Xrotation
      JOINT RightShin
      {
        OFFSET -43.369682 0.0 1e-06
        CHANNELS 3 Zrotation Yrotation Xrotation
        JOINT RightFoot
        {
          OFFSET -42.260784 4e-06 2e-06
          CHANNELS 3 Zrotation Yrotation Xrotation
          JOINT RightToeBase
          {
            OFFSET -14.222245 -2e-06 -1e-06
            CHANNELS 3 Zrotation Yrotation Xrotation
            JOINT RightToeEnd
            {
              OFFSET -6.660062 0.232574 -2e-06
              CHANNELS 3 Zrotation Yrotation Xrotation
            }
          }
        }
      }
    }
  }
}
MOTION
Frames: 4
Frame Time: 0.03333333333333333
0.0 0.0 0.0 0.0 -0.0 0.0 -0.041363 97.880173 4.712142 90.16938 7.931289 89.915207 2.440163 0.159976 -0.135441 -9.896224 -0.640209 0.17089 16.846418 -0.02371 -1.680149 20.466339 5.69755 2.60423 -2.458763 -0.670436 0.301984 -34.425312 0.777627 -0.550395 5e-06 0.0 -0.0 0.083906 0.010081 0.040448 0.004739 0.038297 0.024265 -0.017474 -0.012547 0.062132 -129.17189 -75.662674 145.086746 36.845821 -59.592896 -1.834778 27.223715 0.085122 0.130567 3.141007 -2.111901 19.191002 17.636627 -26.322731 52.411205 -19.466665 -14.395598 29.410395 -1e-06 -8.774822 1e-06 15.926863 -18.227003 6.070357 -0.609776 -1.795654 -3.889329 -4.807088 -11.046811 -2.937852 4e-06 -20.976017 -2e-06 -5.019969 -25.03356 -4.031882 5e-06 -0.0 0.0 -10.634533 -5.686971 -3.565586 10.573277 -17.922951 -3.113904 4e-06 -13.821209 -2e-06 -0.501775 -31.181505 -4.027014 -11.095169 -59.340767 7.094243 -13.982713 -7.150197 -2.875044 13.772731 -8.401492 -3.218241 0.347734 -34.211555 0.77165 -0.963031 -17.73337 2.621019 -1e-06 -1e-06 -0.0 -17.346416 -20.095217 -4.201784 21.757559 -1.638376 3.866422 1e-06 -6.338823 0.0 -1.697589 -22.591743 -6.194007 1e-06 -4e-06 -2e-06 23.312937 -65.440186 176.559586 36.031097 -48.985153 -2.902772 32.422165 -0.083715 0.079601 -3.454078 -4.605429 22.431576 22.182119 -20.375895 49.933323 -16.701811 -16.74353 28.476532 -2e-06 -12.690603 -1e-06 16.062391 -17.97928 2.709768 -0.105919 -1.513855 -4.27588 -5.039041 -5.612871 -2.953561 3e-06 -11.020523 -1e-06 -6.111298 -15.89533 -3.840474 -1e-06 0.0 1e-06 -10.283372 -5.680288 -4.341838 11.028294 -11.302402 -2.372635 -1.384268 -14.238578 -6.320126 -0.62544 -26.924189 -3.827601 -4.545377 -49.96542 -3.653598 -13.708527 -7.363478 -3.720939 18.14115 -14.052739 -3.242676 6e-06 -18.78727 -0.0 -0.429714 -8.456043 2.555505 1e-06 -2e-06 -1e-06 -15.923539 -20.094482 -5.473586 30.419214 -7.190823 1.735928 3e-06 -8.162925 -4e-06 -1.861905 -22.861467 -6.167942 0.0 -4e-06 1e-06 -171.875214 -6.02752 -13.426005 19.836269 -0.03573 0.263317 -88.269852 7.365984 -5.947699 -6.283135 1.521326 2.14692 -0.999999 -0.0 0.0 -1.880666 -4.06424 -4.790912 27.608805 -0.072914 0.06779 -86.771759 6.549754 -3.942472 -6.466466 0.722144 1.662883 -1.000002 0.0 -0.0 
0.0 0.0 0.0 0.0 -0.0 0.0 0.027196 97.913895 4.756079 90.128647 7.820317 89.918488 2.383122 0.176983 -0.135492 -9.902244 -0.618827 0.211211 16.793797 -0.002607 -1.736244 20.392656 5.699181 2.605955 -2.438458 -0.664063 0.269352 -34.391872 0.765151 -0.608989 7e-06 -0.0 -0.0 0.081192 0.008771 0.061953 0.026109 0.033641 0.048598 0.00642 -0.010597 0.080166 -129.127914 -75.694649 145.011536 36.897549 -59.633904 -1.952183 27.165373 0.037335 0.068551 3.148045 -2.287644 19.343828 17.63662 -26.322721 52.411182 -19.466654 -14.395596 29.410385 1e-06 -8.774819 1e-06 15.921656 -18.162416 6.030193 -0.609776 -1.795654 -3.889326 -4.807089 -11.04681 -2.93785 1e-06 -20.976011 -3e-06 -5.019971 -25.033554 -4.031882 5e-06 0.0 -0.0 -10.634531 -5.686973 -3.565589 10.573269 -17.922945 -3.113902 1e-06 -13.821205 -3e-06 -0.50178 -31.181501 -4.027015 -11.023161 -59.29665 7.146762 -13.982711 -7.150198 -2.875041 13.772727 -8.401488 -3.21824 0.347731 -34.21154 0.771652 -0.963031 -17.733366 2.621021 -1e-06 -1e-06 0.0 -17.346413 -20.095217 -4.20178 21.757555 -1.638372 3.866424 0.0 -6.338822 -1e-06 -1.69759 -22.591743 -6.194007 -1e-06 -1e-06 -1e-06 23.095226 -65.259697 176.852356 35.661404 -48.743954 -2.905105 32.413773 -0.121618 0.055228 -3.366703 -4.713233 22.013023 22.182108 -20.375887 49.933319 -16.701815 -16.743526 28.476534 -3e-06 -12.690599 -2e-06 16.063887 -17.994139 2.704987 -0.10592 -1.513857 -4.27588 -5.03904 -5.612871 -2.953558 5e-06 -11.020523 -2e-06 -6.111295 -15.89533 -3.840472 0.0 -1e-06 2e-06 -10.283367 -5.680288 -4.341837 11.028293 -11.302402 -2.372638 -1.384266 -14.238578 -6.320124 -0.625434 -26.924191 -3.827606 -4.562857 -50.054062 -3.633322 -13.708523 -7.363475 -3.720938 18.141146 -14.052739 -3.242678 7e-06 -18.787266 -3e-06 -0.429715 -8.456041 2.555506 2e-06 -1e-06 -1e-06 -15.923528 -20.094479 -5.473585 30.419205 -7.190827 1.735928 3e-06 -8.162924 -3e-06 -1.861902 -22.861467 -6.167941 0.0 -5e-06 -1e-06 -171.855515 -6.003082 -13.420718 19.684656 -0.039225 0.307721 -88.212723 7.303264 -6.02503 -6.254529 1.529696 2.155745 -0.999999 -0.0 -0.0 -1.866065 -4.055787 -4.793054 27.391569 -0.071121 0.06424 -86.679039 6.433047 -4.018961 -6.484574 0.687957 1.65788 -1.000001 -0.0 -0.0 
0.0 0.0 0.0 0.0 -0.0 0.0 0.103871 97.908691 4.805413 90.122261 7.726944 89.896202 2.350801 0.166539 -0.133638 -9.904246 -0.616732 0.226859 16.796452 0.010177 -1.740179 20.336361 5.673828 2.621681 -2.459397 -0.662361 0.169123 -34.345772 0.715976 -0.725512 6e-06 -0.0 -0.0 0.07871 0.008201 0.070917 0.025309 0.026926 0.060963 0.009225 -0.005451 0.085094 -129.097 -75.71666 144.956741 36.957561 -59.629349 -1.96713 27.208904 0.008395 0.027282 3.087178 -2.433033 19.374743 17.636631 -26.322731 52.411201 -19.466671 -14.3956 29.410395 -1e-06 -8.774824 -0.0 15.942724 -18.176235 6.007812 -0.609778 -1.795655 -3.889328 -4.807087 -11.046813 -2.937851 5e-06 -20.976021 -3e-06 -5.019969 -25.033562 -4.031881 5e-06 -0.0 -1e-06 -10.634537 -5.686972 -3.565587 10.573278 -17.922955 -3.113903 3e-06 -13.821212 -1e-06 -0.501778 -31.181511 -4.027016 -11.078461 -59.28611 7.178183 -13.982718 -7.150198 -2.875038 13.772733 -8.401494 -3.218243 0.347739 -34.211559 0.771648 -0.963028 -17.733372 2.621021 -1e-06 -1e-06 -0.0 -17.346422 -20.095219 -4.201784 21.757566 -1.638378 3.866426 1e-06 -6.338825 -1e-06 -1.697589 -22.591745 -6.194006 1e-06 -2e-06 -1e-06 22.855028 -65.107941 177.118378 35.351128 -48.538799 -2.91128 32.415733 -0.136905 0.030976 -3.296989 -4.687314 21.683008 22.182119 -20.375895 49.933323 -16.701813 -16.74353 28.476532 -3e-06 -12.690603 -4e-06 16.081604 -17.974651 2.693943 -0.10592 -1.513856 -4.275881 -5.039042 -5.612872 -2.953557 5e-06 -11.020523 -0.0 -6.111298 -15.89533 -3.840473 -1e-06 0.0 1e-06 -10.283372 -5.680288 -4.341838 11.028297 -11.302405 -2.372635 -1.384268 -14.23858 -6.320123 -0.625437 -26.924194 -3.827601 -4.565473 -50.083794 -3.643409 -13.708527 -7.363476 -3.720936 18.141153 -14.052739 -3.242677 7e-06 -18.78727 -2e-06 -0.429711 -8.456043 2.555502 1e-06 -2e-06 1e-06 -15.923536 -20.094482 -5.473585 30.419218 -7.190826 1.735927 4e-06 -8.162926 -2e-06 -1.861901 -22.861469 -6.167941 -1e-06 -3e-06 -1e-06 -171.942551 -5.96353 -13.41838 19.761614 -0.046016 0.332391 -88.279991 7.205756 -6.018812 -6.205983 1.530515 2.163188 -1.0 0.0 0.0 -1.950577 -4.122137 -4.84073 27.418863 -0.066433 0.055998 -86.71077 6.375974 -4.121556 -6.457981 0.665633 1.651634 -1.000003 0.0 -0.0 
0.0 0.0 0.0 0.0 -0.0 0.0 0.160944 97.892097 4.834299 90.129295 7.626949 89.85997 2.356835 0.134752 -0.121425 -9.907112 -0.610386 0.245685 16.81637 0.01212 -1.709268 20.303366 5.625633 2.633099 -2.47881 -0.669075 0.064555 -34.365467 0.68033 -0.874309 5e-06 -0.0 0.0 0.078078 0.008444 0.072036 0.01605 0.023221 0.063987 0.003337 -0.001729 0.083656 -129.143784 -75.713799 144.963257 37.013916 -59.578846 -1.831117 27.322527 0.00855 0.016166 3.047416 -2.438448 19.382269 17.636627 -26.322733 52.41119 -19.466656 -14.395597 29.410389 -0.0 -8.774821 2e-06 15.935718 -18.170521 6.001275 -0.609775 -1.795652 -3.889329 -4.807088 -11.046809 -2.93785 3e-06 -20.976015 -1e-06 -5.019971 -25.033556 -4.031879 4e-06 -1e-06 -0.0 -10.634531 -5.686968 -3.565588 10.573275 -17.922949 -3.1139 1e-06 -13.821209 -1e-06 -0.501781 -31.181501 -4.027011 -11.115858 -59.28064 7.184265 -13.982711 -7.150197 -2.875042 13.772726 -8.40149 -3.218239 0.347732 -34.211544 0.771658 -0.96303 -17.733368 2.621021 -1e-06 -1e-06 -0.0 -17.346415 -20.095213 -4.201782 21.757555 -1.638374 3.866427 -0.0 -6.338822 -0.0 -1.697591 -22.591742 -6.194003 -0.0 -2e-06 0.0 22.648531 -65.023323 177.336288 35.152378 -48.398209 -2.914924 32.435596 -0.098363 0.027199 -3.225074 -4.577213 21.453562 22.182116 -20.375887 49.933315 -16.701813 -16.74353 28.47653 -2e-06 -12.690601 -3e-06 16.091314 -17.936951 2.694756 -0.10592 -1.513856 -4.275882 -5.039044 -5.612873 -2.953555 4e-06 -11.020523 -0.0 -6.1113 -15.895332 -3.840471 -1e-06 0.0 2e-06 -10.283372 -5.680289 -4.341839 11.028296 -11.302404 -2.372634 -1.384269 -14.238582 -6.320123 -0.62544 -26.924192 -3.827601 -4.587365 -50.060917 -3.621341 -13.708527 -7.363478 -3.720941 18.141151 -14.052737 -3.242675 4e-06 -18.78727 -3e-06 -0.429711 -8.456043 2.555502 1e-06 -1e-06 0.0 -15.923539 -20.094486 -5.473587 30.41921 -7.190824 1.735931 4e-06 -8.162925 -5e-06 -1.861902 -22.861467 -6.167942 -2e-06 -3e-06 -2e-06 -172.100754 -5.911724 -13.435692 19.922989 -0.05343 0.341496 -88.385475 7.073442 -5.983541 -6.195134 1.531647 2.165905 -1.0 -0.0 -0.0 -2.104056 -4.205791 -4.925451 27.540865 -0.062692 0.038819 -86.772011 6.351945 -4.204796 -6.425135 0.648813 1.645428 -1.000002 -0.0 0.0 
